<?xml version="1.0" encoding="UTF-8" standalone="no"?>
<!-- Creator: CorelDRAW X8 -->

<svg
   xml:space="preserve"
   width="284.4mm"
   height="155.9mm"
   version="1.1"
   shape-rendering="geometricPrecision"
   text-rendering="geometricPrecision"
   image-rendering="optimizeQuality"
   fill-rule="evenodd"
   clip-rule="evenodd"
   viewBox="0 0 28440 15590"
   id="svg425"
   sodipodi:docname="Bandera_de_la_Colonia_Tovar.svg"
   inkscape:version="1.1.2 (b8e25be833, 2022-02-05)"
   xmlns:inkscape="http://www.inkscape.org/namespaces/inkscape"
   xmlns:sodipodi="http://sodipodi.sourceforge.net/DTD/sodipodi-0.dtd"
   xmlns="http://www.w3.org/2000/svg"
   xmlns:svg="http://www.w3.org/2000/svg"><sodipodi:namedview
   id="namedview427"
   pagecolor="#ffffff"
   bordercolor="#666666"
   borderopacity="1.0"
   inkscape:pageshadow="2"
   inkscape:pageopacity="0.0"
   inkscape:pagecheckerboard="0"
   inkscape:document-units="mm"
   showgrid="false"
   inkscape:zoom="0.23123464"
   inkscape:cx="715.72321"
   inkscape:cy="361.10506"
   inkscape:window-width="1366"
   inkscape:window-height="706"
   inkscape:window-x="-8"
   inkscape:window-y="-8"
   inkscape:window-maximized="1"
   inkscape:current-layer="Capa_x0020_1" />
 <defs
   id="defs102">
     <linearGradient
   id="id0"
   gradientUnits="userSpaceOnUse"
   x1="13841.1"
   y1="5127.88"
   x2="14503.9"
   y2="5127.88">
      <stop
   offset="0"
   stop-opacity="1"
   stop-color="white"
   id="stop2" />
      <stop
   offset="1"
   stop-opacity="1"
   stop-color="white"
   id="stop4" />
     </linearGradient>
     <linearGradient
   id="id1"
   gradientUnits="userSpaceOnUse"
   x1="14295.2"
   y1="5447"
   x2="14854.9"
   y2="5447">
      <stop
   offset="0"
   stop-opacity="1"
   stop-color="white"
   id="stop7" />
      <stop
   offset="1"
   stop-opacity="1"
   stop-color="white"
   id="stop9" />
     </linearGradient>
     <linearGradient
   id="id2"
   gradientUnits="userSpaceOnUse"
   x1="13455.7"
   y1="5447"
   x2="14015.4"
   y2="5447">
      <stop
   offset="0"
   stop-opacity="1"
   stop-color="white"
   id="stop12" />
      <stop
   offset="1"
   stop-opacity="1"
   stop-color="white"
   id="stop14" />
     </linearGradient>
     <linearGradient
   id="id3"
   gradientUnits="userSpaceOnUse"
   x1="13520.7"
   y1="5918.74"
   x2="13981"
   y2="5918.74">
      <stop
   offset="0"
   stop-opacity="1"
   stop-color="white"
   id="stop17" />
      <stop
   offset="1"
   stop-opacity="1"
   stop-color="white"
   id="stop19" />
     </linearGradient>
     <linearGradient
   id="id4"
   gradientUnits="userSpaceOnUse"
   x1="14808.3"
   y1="5918.74"
   x2="14348"
   y2="5918.74">
      <stop
   offset="0"
   stop-opacity="1"
   stop-color="white"
   id="stop22" />
      <stop
   offset="1"
   stop-opacity="1"
   stop-color="white"
   id="stop24" />
     </linearGradient>
     <linearGradient
   id="id5"
   gradientUnits="userSpaceOnUse"
   x1="14677.6"
   y1="6192.35"
   x2="15542.9"
   y2="6192.35">
      <stop
   offset="0"
   stop-opacity="1"
   stop-color="white"
   id="stop27" />
      <stop
   offset="1"
   stop-opacity="1"
   stop-color="white"
   id="stop29" />
     </linearGradient>
     <linearGradient
   id="id6"
   gradientUnits="userSpaceOnUse"
   x1="13642.9"
   y1="6192.35"
   x2="12777.5"
   y2="6192.35">
      <stop
   offset="0"
   stop-opacity="1"
   stop-color="white"
   id="stop32" />
      <stop
   offset="1"
   stop-opacity="1"
   stop-color="white"
   id="stop34" />
     </linearGradient>
     <linearGradient
   id="id7"
   gradientUnits="userSpaceOnUse"
   x1="15232.6"
   y1="8202.55"
   x2="15399.6"
   y2="8202.55">
      <stop
   offset="0"
   stop-opacity="1"
   stop-color="white"
   id="stop37" />
      <stop
   offset="1"
   stop-opacity="1"
   stop-color="white"
   id="stop39" />
     </linearGradient>
     <linearGradient
   id="id8"
   gradientUnits="userSpaceOnUse"
   x1="15426.6"
   y1="8202.55"
   x2="15593.5"
   y2="8202.55">
      <stop
   offset="0"
   stop-opacity="1"
   stop-color="white"
   id="stop42" />
      <stop
   offset="1"
   stop-opacity="1"
   stop-color="white"
   id="stop44" />
     </linearGradient>
     <linearGradient
   id="id9"
   gradientUnits="userSpaceOnUse"
   x1="15630.3"
   y1="8202.55"
   x2="15797.2"
   y2="8202.55">
      <stop
   offset="0"
   stop-opacity="1"
   stop-color="white"
   id="stop47" />
      <stop
   offset="1"
   stop-opacity="1"
   stop-color="white"
   id="stop49" />
     </linearGradient>
     <linearGradient
   id="id10"
   gradientUnits="userSpaceOnUse"
   x1="15519.9"
   y1="8384.21"
   x2="15686.8"
   y2="8384.21">
      <stop
   offset="0"
   stop-opacity="1"
   stop-color="white"
   id="stop52" />
      <stop
   offset="1"
   stop-opacity="1"
   stop-color="white"
   id="stop54" />
     </linearGradient>
     <linearGradient
   id="id11"
   gradientUnits="userSpaceOnUse"
   x1="15318.6"
   y1="8384.21"
   x2="15485.5"
   y2="8384.21">
      <stop
   offset="0"
   stop-opacity="1"
   stop-color="white"
   id="stop57" />
      <stop
   offset="1"
   stop-opacity="1"
   stop-color="white"
   id="stop59" />
     </linearGradient>
     <linearGradient
   id="id12"
   gradientUnits="userSpaceOnUse"
   x1="15424.1"
   y1="8568.31"
   x2="15591"
   y2="8568.31">
      <stop
   offset="0"
   stop-opacity="1"
   stop-color="white"
   id="stop62" />
      <stop
   offset="1"
   stop-opacity="1"
   stop-color="white"
   id="stop64" />
     </linearGradient>
     <linearGradient
   id="id13"
   gradientUnits="userSpaceOnUse"
   x1="13496.9"
   y1="8141.27"
   x2="14807.9"
   y2="8141.27">
      <stop
   offset="0"
   stop-opacity="1"
   stop-color="white"
   id="stop67" />
      <stop
   offset="1"
   stop-opacity="1"
   stop-color="white"
   id="stop69" />
     </linearGradient>
     <linearGradient
   id="id14"
   gradientUnits="userSpaceOnUse"
   x1="12536.9"
   y1="8202.55"
   x2="12703.8"
   y2="8202.55">
      <stop
   offset="0"
   stop-opacity="1"
   stop-color="white"
   id="stop72" />
      <stop
   offset="1"
   stop-opacity="1"
   stop-color="white"
   id="stop74" />
     </linearGradient>
     <linearGradient
   id="id15"
   gradientUnits="userSpaceOnUse"
   x1="12730.8"
   y1="8202.55"
   x2="12897.7"
   y2="8202.55">
      <stop
   offset="0"
   stop-opacity="1"
   stop-color="white"
   id="stop77" />
      <stop
   offset="1"
   stop-opacity="1"
   stop-color="white"
   id="stop79" />
     </linearGradient>
     <linearGradient
   id="id16"
   gradientUnits="userSpaceOnUse"
   x1="12934.6"
   y1="8202.55"
   x2="13101.5"
   y2="8202.55">
      <stop
   offset="0"
   stop-opacity="1"
   stop-color="white"
   id="stop82" />
      <stop
   offset="1"
   stop-opacity="1"
   stop-color="white"
   id="stop84" />
     </linearGradient>
     <linearGradient
   id="id17"
   gradientUnits="userSpaceOnUse"
   x1="12824.1"
   y1="8384.21"
   x2="12991"
   y2="8384.21">
      <stop
   offset="0"
   stop-opacity="1"
   stop-color="white"
   id="stop87" />
      <stop
   offset="1"
   stop-opacity="1"
   stop-color="white"
   id="stop89" />
     </linearGradient>
     <linearGradient
   id="id18"
   gradientUnits="userSpaceOnUse"
   x1="12622.8"
   y1="8384.21"
   x2="12789.7"
   y2="8384.21">
      <stop
   offset="0"
   stop-opacity="1"
   stop-color="white"
   id="stop92" />
      <stop
   offset="1"
   stop-opacity="1"
   stop-color="white"
   id="stop94" />
     </linearGradient>
     <linearGradient
   id="id19"
   gradientUnits="userSpaceOnUse"
   x1="12728.4"
   y1="8568.31"
   x2="12895.3"
   y2="8568.31">
      <stop
   offset="0"
   stop-opacity="1"
   stop-color="white"
   id="stop97" />
      <stop
   offset="1"
   stop-opacity="1"
   stop-color="white"
   id="stop99" />
     </linearGradient>
 </defs>
 <g
   id="Capa_x0020_1"
   inkscape:label="Capa 1">
  <metadata
   id="CorelCorpID_0Corel-Layer" />
  <rect
   fill="black"
   x="-1127"
   y="-1239"
   width="10583"
   height="18574"
   id="rect105"
   style="fill:#000000;fill-opacity:1;stroke:none" />
  <g
   id="g110"
   style="fill:#fdda25;fill-opacity:1"
   transform="matrix(1.128989,0,0,0.9904549,-1218.4298,-10.404162)">
   <path
   fill="black"
   fill-rule="nonzero"
   d="M 18849,-1069 H 9456 v -21 h 9393 l 10,10 z m 0,-21 h 10 v 10 z m -10,18743 V -1080 h 20 v 18733 l -10,10 z m 20,0 v 10 h -10 z m -9403,-11 h 9393 v 21 H 9456 l -10,-10 z m 0,21 h -10 v -10 z m 10,-18743 v 18733 h -20 V -1080 l 10,-10 z m -20,0 v -10 h 10 z"
   id="path107"
   style="fill:#fdda25;fill-opacity:1" />
   <polygon
   id="1"
   fill="#FDEA08"
   points="18849,17653 9456,17653 9456,-1080 18849,-1080 "
   style="fill:#fdda25;fill-opacity:1" />
  </g>
  <g
   id="g416">
   <g
   id="g116">
    <path
   fill="none"
   stroke="black"
   stroke-width="250"
   d="M16478 10397c-148,82 -213,70 -286,25 -73,-46 -78,-136 -78,-136 0,0 255,-204 321,-234 65,-29 65,-29 65,-29l76 -53c0,0 52,81 32,101 -20,21 -130,326 -130,326z"
   id="path112" />
    <path
   id="path114"
   fill="#CCCCCC"
   d="M16478 10397c-148,82 -213,70 -286,25 -73,-46 -78,-136 -78,-136 0,0 255,-204 321,-234 65,-29 65,-29 65,-29l76 -53c0,0 52,81 32,101 -20,21 -130,326 -130,326z" />
   </g>
   <g
   id="g122">
    <path
   fill="none"
   stroke="black"
   stroke-width="250"
   d="M16408 10274c11,66 32,99 58,110 174,71 569,-985 1009,-730 0,0 -94,-226 -216,-295 0,0 108,-282 98,-376 -7,-64 -5,-90 -6,-98 0,-3 -5,2 -5,2 0,0 -256,213 -459,238 -202,26 -159,385 -159,385 0,0 15,224 -6,289 -103,323 -336,332 -314,475z"
   id="path118" />
    <path
   id="path120"
   fill="#CCCCCC"
   d="M16408 10274c11,66 32,99 58,110 174,71 569,-985 1009,-730 0,0 -94,-226 -216,-295 0,0 108,-282 98,-376 -7,-64 -5,-90 -6,-98 0,-3 -5,2 -5,2 0,0 -256,213 -459,238 -202,26 -159,385 -159,385 0,0 15,224 -6,289 -103,323 -336,332 -314,475z" />
   </g>
   <path
   fill="#020107"
   d="M14163 9674c21,-3 94,2 115,-1 372,-43 756,-105 1360,-606 591,-492 730,-1170 711,-1883 -18,-656 -134,-1237 74,-1883 98,-304 310,-722 310,-722l-869 -609c-575,271 -1704,325 -1704,325 0,0 -1129,-54 -1704,-325l-869 609c0,0 211,418 310,722 208,646 72,1227 55,1883 -20,713 116,1413 708,1905 604,501 1010,541 1382,584 21,3 100,-2 121,1z"
   id="path124" />
   <g
   id="g130">
    <path
   fill="none"
   stroke="black"
   stroke-width="20"
   d="M11957 4618l496 -382c0,0 574,233 1485,319 0,0 44,1 26,33 -19,32 -1512,2007 -1512,2007l-180 -2c0,0 20,-282 23,-412 2,-130 -15,-410 -37,-501 -85,-349 -160,-728 -301,-1062z"
   id="path126" />
    <path
   id="path128"
   fill="#FDEA08"
   d="M11957 4618l496 -382c0,0 574,233 1485,319 0,0 44,1 26,33 -19,32 -1512,2007 -1512,2007l-180 -2c0,0 20,-282 23,-412 2,-130 -15,-410 -37,-501 -85,-349 -160,-728 -301,-1062z"
   style="fill:#fdda25;fill-opacity:1" />
   </g>
   <g
   id="g136"
   style="fill:#fdda25;fill-opacity:1">
    <path
   fill="none"
   stroke="black"
   stroke-width="20"
   d="M16373 4618l-496 -382c0,0 -575,233 -1485,319 0,0 -44,1 -26,33 18,32 1512,2007 1512,2007l179 -2c0,0 -19,-282 -22,-412 -2,-130 15,-410 37,-501 85,-349 160,-728 301,-1062z"
   id="path132"
   style="fill:#fdda25;fill-opacity:1" />
    <path
   id="path134"
   fill="#FDEA08"
   d="M16373 4618l-496 -382c0,0 -575,233 -1485,319 0,0 -44,1 -26,33 18,32 1512,2007 1512,2007l179 -2c0,0 -19,-282 -22,-412 -2,-130 15,-410 37,-501 85,-349 160,-728 301,-1062z"
   style="fill:#fdda25;fill-opacity:1" />
   </g>
   <g
   id="g142">
    <polygon
   fill="none"
   stroke="black"
   stroke-width="20"
   points="14165,4691 14504,5143 14168,5565 13841,5145 "
   id="polygon138" />
    <polygon
   id="polygon140"
   fill="url(#id0)"
   points="14165,4691 14504,5143 14168,5565 13841,5145 " />
   </g>
   <g
   id="g148">
    <polygon
   fill="none"
   stroke="black"
   stroke-width="20"
   points="14587,5275 14855,5619 14295,5619 "
   id="polygon144" />
    <polygon
   id="polygon146"
   fill="url(#id1)"
   points="14587,5275 14855,5619 14295,5619 " />
   </g>
   <g
   id="g154">
    <polygon
   fill="none"
   stroke="black"
   stroke-width="20"
   points="13748,5275 14015,5619 13456,5619 "
   id="polygon150" />
    <polygon
   id="polygon152"
   fill="url(#id2)"
   points="13748,5275 14015,5619 13456,5619 " />
   </g>
   <g
   id="g160">
    <path
   fill="black"
   fill-rule="nonzero"
   d="M13979 5764l2 -2 2 7 -248 305 -4 -5 248 -305zm2 -2l8 0 -6 7 -2 -7zm-460 9l-3 -1 3 -6 460 -2 0 8 -460 1zm-3 -1l-4 -6 7 0 -3 6zm218 299l-1 5 -5 0 -212 -304 5 -5 213 304zm-1 5l-2 3 -3 -3 5 0z"
   id="path156" />
    <polygon
   id="polygon158"
   fill="url(#id3)"
   points="13733,6071 13981,5766 13521,5767 " />
   </g>
   <g
   id="g166">
    <path
   fill="black"
   fill-rule="nonzero"
   d="M14350 5764l248 305 -4 5 -248 -305 2 -7 2 2zm-4 5l-6 -7 8 0 -2 7zm462 2l-460 -1 0 -8 460 2 3 6 -3 1zm0 -7l7 0 -4 6 -3 -6zm-215 305l213 -304 5 5 -212 304 -5 0 -1 -5zm6 5l-3 3 -2 -3 5 0z"
   id="path162" />
    <polygon
   id="polygon164"
   fill="url(#id4)"
   points="14596,6071 14348,5766 14808,5767 " />
   </g>
   <g
   id="g172">
    <path
   fill="none"
   stroke="black"
   stroke-width="20"
   d="M14678 6195c12,-12 287,-417 287,-417l572 776 6 53 -476 0 -389 -412z"
   id="path168" />
    <path
   id="path170"
   fill="url(#id5)"
   d="M14678 6195c12,-12 287,-417 287,-417l572 776 6 53 -476 0 -389 -412z" />
   </g>
   <g
   id="g178">
    <path
   fill="none"
   stroke="black"
   stroke-width="20"
   d="M13643 6195c-12,-12 -287,-417 -287,-417l-572 776 -6 53 476 0 389 -412z"
   id="path174" />
    <path
   id="path176"
   fill="url(#id6)"
   d="M13643 6195c-12,-12 -287,-417 -287,-417l-572 776 -6 53 476 0 389 -412z" />
   </g>
   <path
   fill="#F20000"
   d="M15038 8278c-9,60 -25,117 -45,171 11,25 45,84 46,111 1,28 -5,52 -24,84 -18,32 -51,53 -51,53 -17,10 -114,6 -114,6 -34,42 -71,81 -111,117 -1,27 2,100 -9,125 -12,25 -29,43 -60,63 -31,20 -70,23 -70,23 -20,1 -115,-54 -115,-54 -61,25 -125,43 -191,54 -16,22 -50,78 -73,93 -24,15 -48,21 -85,21 -37,0 -71,-18 -71,-18 -17,-10 -63,-97 -63,-97 -66,-12 -130,-30 -190,-55 0,0 -96,57 -116,56 0,0 -39,-3 -70,-23 -31,-20 -49,-38 -60,-63 -12,-25 -10,-106 -11,-133 -37,-33 -71,-70 -102,-109 0,0 -103,4 -120,-6 0,0 -33,-21 -52,-53 -18,-32 -25,-56 -23,-84 1,-27 38,-92 50,-117 -19,-53 -33,-107 -42,-164 0,0 -76,-40 -86,-57 0,0 -18,-34 -18,-71 0,-37 6,-61 21,-85 15,-23 72,-60 94,-75 0,0 15,-136 32,-167 18,-32 -34,-47 -93,-32 -59,14 -530,191 -552,196 -22,5 -64,-2 -93,-39 -30,-37 -59,-103 27,-162 85,-59 643,-425 643,-425 0,0 27,-54 -38,-38 -65,16 -490,178 -490,178 0,0 -88,44 -133,0 -44,-44 -56,-103 8,-152 64,-49 451,-260 508,-292 56,-32 208,-110 257,-185l-1108 -1c-25,179 -44,465 -31,645 17,225 70,446 147,637 304,750 1007,1240 1785,1240 758,0 1463,-494 1778,-1214 127,-290 149,-617 149,-963 0,-116 -8,-229 -23,-340l-1098 3c49,75 195,146 251,178 57,32 445,243 508,292 64,49 52,108 8,152 -44,44 -133,0 -133,0 0,0 -425,-162 -490,-178 -65,-16 -38,38 -38,38 0,0 558,366 644,425 85,59 56,125 27,162 -30,37 -72,44 -94,39 -22,-5 -493,-182 -552,-196 -59,-15 -111,0 -93,32 17,31 32,167 32,167 22,15 84,52 99,75 15,24 21,48 21,85 0,37 -18,71 -18,71 -10,17 -86,56 -86,56z"
   id="path180"
   style="fill:#ef3340;fill-opacity:1" />
   <g
   id="g186">
    <path
   fill="none"
   stroke="black"
   stroke-width="20"
   d="M15316 8085c65,0 117,53 117,118 0,64 -52,117 -117,117 -65,0 -117,-53 -117,-117 0,-65 52,-118 117,-118z"
   id="path182" />
    <path
   id="path184"
   fill="black"
   d="M15316 8085c65,0 117,53 117,118 0,64 -52,117 -117,117 -65,0 -117,-53 -117,-117 0,-65 52,-118 117,-118z" />
   </g>
   <g
   id="g192">
    <path
   fill="none"
   stroke="black"
   stroke-width="20"
   d="M15510 8085c65,0 117,53 117,118 0,64 -52,117 -117,117 -65,0 -117,-53 -117,-117 0,-65 52,-118 117,-118z"
   id="path188" />
    <path
   id="path190"
   fill="black"
   d="M15510 8085c65,0 117,53 117,118 0,64 -52,117 -117,117 -65,0 -117,-53 -117,-117 0,-65 52,-118 117,-118z" />
   </g>
   <g
   id="g198">
    <path
   fill="none"
   stroke="black"
   stroke-width="20"
   d="M15714 8085c65,0 117,53 117,118 0,64 -52,117 -117,117 -65,0 -118,-53 -118,-117 0,-65 53,-118 118,-118z"
   id="path194" />
    <path
   id="path196"
   fill="black"
   d="M15714 8085c65,0 117,53 117,118 0,64 -52,117 -117,117 -65,0 -118,-53 -118,-117 0,-65 53,-118 118,-118z" />
   </g>
   <g
   id="g204">
    <path
   fill="none"
   stroke="black"
   stroke-width="20"
   d="M15603 8267c65,0 118,52 118,117 0,65 -53,118 -118,118 -64,0 -117,-53 -117,-118 0,-65 53,-117 117,-117z"
   id="path200" />
    <path
   id="path202"
   fill="black"
   d="M15603 8267c65,0 118,52 118,117 0,65 -53,118 -118,118 -64,0 -117,-53 -117,-118 0,-65 53,-117 117,-117z" />
   </g>
   <g
   id="g210">
    <path
   fill="none"
   stroke="black"
   stroke-width="20"
   d="M15402 8267c65,0 117,52 117,117 0,65 -52,118 -117,118 -65,0 -117,-53 -117,-118 0,-65 52,-117 117,-117z"
   id="path206" />
    <path
   id="path208"
   fill="black"
   d="M15402 8267c65,0 117,52 117,117 0,65 -52,118 -117,118 -65,0 -117,-53 -117,-118 0,-65 52,-117 117,-117z" />
   </g>
   <g
   id="g216">
    <path
   fill="none"
   stroke="black"
   stroke-width="20"
   d="M15508 8451c64,0 117,53 117,117 0,65 -53,118 -117,118 -65,0 -118,-53 -118,-118 0,-64 53,-117 118,-117z"
   id="path212" />
    <path
   id="path214"
   fill="black"
   d="M15508 8451c64,0 117,53 117,117 0,65 -53,118 -117,118 -65,0 -118,-53 -118,-118 0,-64 53,-117 118,-117z" />
   </g>
   <g
   id="g222">
    <path
   fill="none"
   stroke="black"
   stroke-width="20"
   d="M15316 8119c46,0 84,37 84,84 0,46 -38,83 -84,83 -46,0 -83,-37 -83,-83 0,-47 37,-84 83,-84z"
   id="path218" />
    <path
   id="path220"
   fill="url(#id7)"
   d="M15316 8119c46,0 84,37 84,84 0,46 -38,83 -84,83 -46,0 -83,-37 -83,-83 0,-47 37,-84 83,-84z" />
   </g>
   <g
   id="g228">
    <path
   fill="none"
   stroke="black"
   stroke-width="20"
   d="M15510 8119c46,0 83,37 83,84 0,46 -37,83 -83,83 -46,0 -83,-37 -83,-83 0,-47 37,-84 83,-84z"
   id="path224" />
    <path
   id="path226"
   fill="url(#id8)"
   d="M15510 8119c46,0 83,37 83,84 0,46 -37,83 -83,83 -46,0 -83,-37 -83,-83 0,-47 37,-84 83,-84z" />
   </g>
   <g
   id="g234">
    <path
   fill="none"
   stroke="black"
   stroke-width="20"
   d="M15714 8119c46,0 83,37 83,84 0,46 -37,83 -83,83 -46,0 -84,-37 -84,-83 0,-47 38,-84 84,-84z"
   id="path230" />
    <path
   id="path232"
   fill="url(#id9)"
   d="M15714 8119c46,0 83,37 83,84 0,46 -37,83 -83,83 -46,0 -84,-37 -84,-83 0,-47 38,-84 84,-84z" />
   </g>
   <g
   id="g240">
    <path
   fill="none"
   stroke="black"
   stroke-width="20"
   d="M15603 8301c46,0 84,37 84,83 0,46 -38,84 -84,84 -46,0 -83,-38 -83,-84 0,-46 37,-83 83,-83z"
   id="path236" />
    <path
   id="path238"
   fill="url(#id10)"
   d="M15603 8301c46,0 84,37 84,83 0,46 -38,84 -84,84 -46,0 -83,-38 -83,-84 0,-46 37,-83 83,-83z" />
   </g>
   <g
   id="g246">
    <path
   fill="none"
   stroke="black"
   stroke-width="20"
   d="M15402 8301c46,0 83,37 83,83 0,46 -37,84 -83,84 -46,0 -83,-38 -83,-84 0,-46 37,-83 83,-83z"
   id="path242" />
    <path
   id="path244"
   fill="url(#id11)"
   d="M15402 8301c46,0 83,37 83,83 0,46 -37,84 -83,84 -46,0 -83,-38 -83,-84 0,-46 37,-83 83,-83z" />
   </g>
   <g
   id="g252">
    <path
   fill="none"
   stroke="black"
   stroke-width="20"
   d="M15508 8485c46,0 83,37 83,83 0,46 -37,84 -83,84 -47,0 -84,-38 -84,-84 0,-46 37,-83 84,-83z"
   id="path248" />
    <path
   id="path250"
   fill="url(#id12)"
   d="M15508 8485c46,0 83,37 83,83 0,46 -37,84 -83,84 -47,0 -84,-38 -84,-84 0,-46 37,-83 84,-83z" />
   </g>
   <g
   id="g258">
    <path
   fill="none"
   stroke="black"
   stroke-width="20"
   d="M14152 7486c362,0 656,293 656,655 0,362 -294,656 -656,656 -362,0 -655,-294 -655,-656 0,-362 293,-655 655,-655z"
   id="path254" />
    <path
   id="path256"
   fill="url(#id13)"
   d="M14152 7486c362,0 656,293 656,655 0,362 -294,656 -656,656 -362,0 -655,-294 -655,-656 0,-362 293,-655 655,-655z" />
   </g>
   <g
   id="g264">
    <path
   fill="none"
   stroke="black"
   stroke-width="20"
   d="M14616 7678c256,256 256,671 0,927 -256,256 -671,256 -927,0 -256,-256 -256,-671 0,-927 256,-256 671,-256 927,0z"
   id="path260" />
    <path
   id="path262"
   fill="white"
   d="M14616 7678c256,256 256,671 0,927 -256,256 -671,256 -927,0 -256,-256 -256,-671 0,-927 256,-256 671,-256 927,0z" />
   </g>
   <g
   id="g270">
    <polygon
   fill="none"
   stroke="black"
   stroke-width="20"
   points="14087,7489 14218,7489 14218,8793 14087,8793 "
   id="polygon266" />
    <polygon
   id="polygon268"
   fill="#020107"
   points="14087,7489 14218,7489 14218,8793 14087,8793 " />
   </g>
   <g
   id="g276">
    <polygon
   fill="none"
   stroke="black"
   stroke-width="20"
   points="13645,7727 13738,7634 14660,8556 14567,8649 "
   id="polygon272" />
    <polygon
   id="polygon274"
   fill="#020107"
   points="13645,7727 13738,7634 14660,8556 14567,8649 " />
   </g>
   <g
   id="g282">
    <polygon
   fill="none"
   stroke="black"
   stroke-width="20"
   points="14567,7634 14660,7727 13738,8649 13645,8556 "
   id="polygon278" />
    <polygon
   id="polygon280"
   fill="#020107"
   points="14567,7634 14660,7727 13738,8649 13645,8556 " />
   </g>
   <g
   id="g288">
    <polygon
   fill="none"
   stroke="black"
   stroke-width="20"
   points="14805,8076 14805,8207 13500,8207 13500,8076 "
   id="polygon284" />
    <polygon
   id="polygon286"
   fill="#020107"
   points="14805,8076 14805,8207 13500,8207 13500,8076 " />
   </g>
   <g
   id="g294">
    <path
   fill="none"
   stroke="black"
   stroke-width="20"
   d="M14152 7876c147,0 265,119 265,265 0,147 -118,265 -265,265 -146,0 -265,-118 -265,-265 0,-146 119,-265 265,-265z"
   id="path290" />
    <path
   id="path292"
   fill="#020107"
   d="M14152 7876c147,0 265,119 265,265 0,147 -118,265 -265,265 -146,0 -265,-118 -265,-265 0,-146 119,-265 265,-265z" />
   </g>
   <path
   fill="black"
   fill-rule="nonzero"
   d="M12633 5450l-140 0 0 -436c0,1 -158,0 -158,0l0 -75c78,-4 145,-2 212,-124l86 0 0 635zm321 -343c-36,-12 -62,-29 -79,-50 -17,-22 -26,-49 -26,-79 0,-46 19,-85 55,-116 36,-31 85,-47 145,-47 61,0 110,16 147,48 37,32 56,71 56,117 0,29 -9,55 -26,77 -17,22 -42,38 -77,50 43,13 75,33 97,61 23,28 34,62 34,101 0,54 -21,100 -63,136 -42,37 -98,56 -166,56 -69,0 -125,-19 -167,-56 -42,-37 -63,-83 -63,-138 0,-41 12,-76 35,-103 23,-28 56,-47 98,-57z"
   id="path296" />
   <g
   id="g302">
    <path
   fill="none"
   stroke="black"
   stroke-width="20"
   d="M13054 4925c44,0 79,36 79,79 0,43 -35,78 -79,78 -43,0 -78,-35 -78,-78 0,-43 35,-79 78,-79z"
   id="path298" />
    <path
   id="path300"
   fill="#FDEA08"
   d="M13054 4925c44,0 79,36 79,79 0,43 -35,78 -79,78 -43,0 -78,-35 -78,-78 0,-43 35,-79 78,-79z" />
   </g>
   <g
   id="g308">
    <path
   fill="none"
   stroke="black"
   stroke-width="20"
   d="M13054 5181c53,0 96,43 96,95 0,53 -43,96 -96,96 -52,0 -95,-43 -95,-96 0,-52 43,-95 95,-95z"
   id="path304" />
    <path
   id="path306"
   fill="#FDEA08"
   d="M13054 5181c53,0 96,43 96,95 0,53 -43,96 -96,96 -52,0 -95,-43 -95,-96 0,-52 43,-95 95,-95z" />
   </g>
   <path
   fill="black"
   fill-rule="nonzero"
   d="M15315 5451l0 -139 -262 0 3 -97 251 -391 103 0 0 398 92 0 0 90 -92 0 0 139 -95 0zm-3 -229l0 -249c-62,84 -110,154 -154,249l154 0zm292 44l98 0c10,44 21,70 44,90 42,36 110,7 129,-14 65,-72 4,-198 -111,-170l-2 -80c5,0 10,1 13,1 72,0 108,-31 110,-75 3,-73 -50,-103 -104,-89 -26,7 -54,42 -62,93l-110 0c10,-53 4,-111 57,-157 35,-31 81,-44 135,-44 37,0 71,8 102,23 32,15 56,35 72,61 17,26 25,53 25,82 0,28 -8,53 -24,76 -15,23 -39,41 -70,54 145,31 154,207 56,295 -43,39 -92,57 -158,57 -60,0 -104,-15 -144,-47 -51,-40 -51,-103 -56,-156z"
   id="path310" />
   <g
   id="g316">
    <path
   fill="none"
   stroke="black"
   stroke-width="20"
   d="M12620 8085c65,0 118,53 118,118 0,64 -53,117 -118,117 -64,0 -117,-53 -117,-117 0,-65 53,-118 117,-118z"
   id="path312" />
    <path
   id="path314"
   fill="black"
   d="M12620 8085c65,0 118,53 118,118 0,64 -53,117 -118,117 -64,0 -117,-53 -117,-117 0,-65 53,-118 117,-118z" />
   </g>
   <g
   id="g322">
    <path
   fill="none"
   stroke="black"
   stroke-width="20"
   d="M12814 8085c65,0 118,53 118,118 0,64 -53,117 -118,117 -65,0 -117,-53 -117,-117 0,-65 52,-118 117,-118z"
   id="path318" />
    <path
   id="path320"
   fill="black"
   d="M12814 8085c65,0 118,53 118,118 0,64 -53,117 -118,117 -65,0 -117,-53 -117,-117 0,-65 52,-118 117,-118z" />
   </g>
   <g
   id="g328">
    <path
   fill="none"
   stroke="black"
   stroke-width="20"
   d="M13018 8085c65,0 117,53 117,118 0,64 -52,117 -117,117 -65,0 -117,-53 -117,-117 0,-65 52,-118 117,-118z"
   id="path324" />
    <path
   id="path326"
   fill="black"
   d="M13018 8085c65,0 117,53 117,118 0,64 -52,117 -117,117 -65,0 -117,-53 -117,-117 0,-65 52,-118 117,-118z" />
   </g>
   <g
   id="g334">
    <path
   fill="none"
   stroke="black"
   stroke-width="20"
   d="M12908 8267c64,0 117,52 117,117 0,65 -53,118 -117,118 -65,0 -118,-53 -118,-118 0,-65 53,-117 118,-117z"
   id="path330" />
    <path
   id="path332"
   fill="black"
   d="M12908 8267c64,0 117,52 117,117 0,65 -53,118 -117,118 -65,0 -118,-53 -118,-118 0,-65 53,-117 118,-117z" />
   </g>
   <g
   id="g340">
    <path
   fill="none"
   stroke="black"
   stroke-width="20"
   d="M12706 8267c65,0 118,52 118,117 0,65 -53,118 -118,118 -65,0 -117,-53 -117,-118 0,-65 52,-117 117,-117z"
   id="path336" />
    <path
   id="path338"
   fill="black"
   d="M12706 8267c65,0 118,52 118,117 0,65 -53,118 -118,118 -65,0 -117,-53 -117,-118 0,-65 52,-117 117,-117z" />
   </g>
   <g
   id="g346">
    <path
   fill="none"
   stroke="black"
   stroke-width="20"
   d="M12812 8451c65,0 117,53 117,117 0,65 -52,118 -117,118 -65,0 -117,-53 -117,-118 0,-64 52,-117 117,-117z"
   id="path342" />
    <path
   id="path344"
   fill="black"
   d="M12812 8451c65,0 117,53 117,117 0,65 -52,118 -117,118 -65,0 -117,-53 -117,-118 0,-64 52,-117 117,-117z" />
   </g>
   <g
   id="g352">
    <path
   fill="none"
   stroke="black"
   stroke-width="20"
   d="M12620 8119c46,0 84,37 84,84 0,46 -38,83 -84,83 -46,0 -83,-37 -83,-83 0,-47 37,-84 83,-84z"
   id="path348" />
    <path
   id="path350"
   fill="url(#id14)"
   d="M12620 8119c46,0 84,37 84,84 0,46 -38,83 -84,83 -46,0 -83,-37 -83,-83 0,-47 37,-84 83,-84z" />
   </g>
   <g
   id="g358">
    <path
   fill="none"
   stroke="black"
   stroke-width="20"
   d="M12814 8119c46,0 84,37 84,84 0,46 -38,83 -84,83 -46,0 -83,-37 -83,-83 0,-47 37,-84 83,-84z"
   id="path354" />
    <path
   id="path356"
   fill="url(#id15)"
   d="M12814 8119c46,0 84,37 84,84 0,46 -38,83 -84,83 -46,0 -83,-37 -83,-83 0,-47 37,-84 83,-84z" />
   </g>
   <g
   id="g364">
    <path
   fill="none"
   stroke="black"
   stroke-width="20"
   d="M13018 8119c46,0 83,37 83,84 0,46 -37,83 -83,83 -46,0 -83,-37 -83,-83 0,-47 37,-84 83,-84z"
   id="path360" />
    <path
   id="path362"
   fill="url(#id16)"
   d="M13018 8119c46,0 83,37 83,84 0,46 -37,83 -83,83 -46,0 -83,-37 -83,-83 0,-47 37,-84 83,-84z" />
   </g>
   <g
   id="g370">
    <path
   fill="none"
   stroke="black"
   stroke-width="20"
   d="M12908 8301c46,0 83,37 83,83 0,46 -37,84 -83,84 -47,0 -84,-38 -84,-84 0,-46 37,-83 84,-83z"
   id="path366" />
    <path
   id="path368"
   fill="url(#id17)"
   d="M12908 8301c46,0 83,37 83,83 0,46 -37,84 -83,84 -47,0 -84,-38 -84,-84 0,-46 37,-83 84,-83z" />
   </g>
   <g
   id="g376">
    <path
   fill="none"
   stroke="black"
   stroke-width="20"
   d="M12706 8301c46,0 84,37 84,83 0,46 -38,84 -84,84 -46,0 -83,-38 -83,-84 0,-46 37,-83 83,-83z"
   id="path372" />
    <path
   id="path374"
   fill="url(#id18)"
   d="M12706 8301c46,0 84,37 84,83 0,46 -38,84 -84,84 -46,0 -83,-38 -83,-84 0,-46 37,-83 83,-83z" />
   </g>
   <g
   id="g382">
    <path
   fill="none"
   stroke="black"
   stroke-width="20"
   d="M12812 8485c46,0 83,37 83,83 0,46 -37,84 -83,84 -46,0 -84,-38 -84,-84 0,-46 38,-83 84,-83z"
   id="path378" />
    <path
   id="path380"
   fill="url(#id19)"
   d="M12812 8485c46,0 83,37 83,83 0,46 -37,84 -83,84 -46,0 -84,-38 -84,-84 0,-46 38,-83 84,-83z" />
   </g>
   <g
   id="g388">
    <path
   fill="none"
   stroke="black"
   stroke-width="250"
   d="M11757 10391c147,83 213,71 286,26 73,-46 79,-136 79,-136 0,0 -255,-205 -321,-234 -65,-30 -65,-30 -65,-30l-76 -53c0,0 -52,80 -32,101 20,20 129,326 129,326z"
   id="path384" />
    <path
   id="path386"
   fill="#CCCCCC"
   d="M11757 10391c147,83 213,71 286,26 73,-46 79,-136 79,-136 0,0 -255,-205 -321,-234 -65,-30 -65,-30 -65,-30l-76 -53c0,0 -52,80 -32,101 20,20 129,326 129,326z" />
   </g>
   <g
   id="g394">
    <path
   fill="none"
   stroke="black"
   stroke-width="250"
   d="M11827 10269c-10,65 -32,98 -58,109 -174,71 -567,-986 -1007,-733 0,0 95,-225 217,-294 0,0 -108,-282 -97,-376 7,-64 5,-90 6,-98 0,-3 5,2 5,2 0,0 255,214 458,239 202,26 158,386 158,386 0,0 -15,223 6,289 102,323 335,332 312,476z"
   id="path390" />
    <path
   id="path392"
   fill="#CCCCCC"
   d="M11827 10269c-10,65 -32,98 -58,109 -174,71 -567,-986 -1007,-733 0,0 95,-225 217,-294 0,0 -108,-282 -97,-376 7,-64 5,-90 6,-98 0,-3 5,2 5,2 0,0 255,214 458,239 202,26 158,386 158,386 0,0 -15,223 6,289 102,323 335,332 312,476z" />
   </g>
   <g
   id="g400">
    <path
   fill="none"
   stroke="black"
   stroke-width="250"
   d="M14518 10723c1631,-70 2575,-1034 2417,-1160 -172,-137 -297,-314 -389,-522 -1356,1502 -3575,1475 -4889,-79 -99,204 -231,377 -407,509 -161,120 748,1116 2379,1238 276,20 612,26 889,14z"
   id="path396" />
    <path
   id="path398"
   fill="#E6E6E6"
   d="M14518 10723c1631,-70 2575,-1034 2417,-1160 -172,-137 -297,-314 -389,-522 -1356,1502 -3575,1475 -4889,-79 -99,204 -231,377 -407,509 -161,120 748,1116 2379,1238 276,20 612,26 889,14z" />
   </g>
   <g
   id="g406">
    <path
   fill="none"
   stroke="black"
   stroke-width="20"
   d="M11891 10209c51,26 52,156 30,172 -6,4 52,-19 40,-105 0,0 4,-31 13,-6 9,24 21,86 21,110 0,23 20,-99 20,-99 0,0 29,27 27,79 -2,52 22,-42 22,-42 0,0 -68,-66 -98,-75 -31,-10 -31,-10 -31,-10l-44 -24z"
   id="path402" />
    <path
   id="path404"
   fill="black"
   d="M11891 10209c51,26 52,156 30,172 -6,4 52,-19 40,-105 0,0 4,-31 13,-6 9,24 21,86 21,110 0,23 20,-99 20,-99 0,0 29,27 27,79 -2,52 22,-42 22,-42 0,0 -68,-66 -98,-75 -31,-10 -31,-10 -31,-10l-44 -24z" />
   </g>
   <path
   fill="black"
   fill-rule="nonzero"
   d="M12514 10097l34 36c-30,28 -61,44 -95,47 -33,4 -66,-5 -98,-25 -33,-21 -55,-45 -68,-72 -12,-27 -15,-56 -10,-88 6,-33 18,-64 37,-93 20,-32 44,-56 71,-72 28,-16 56,-23 87,-21 30,1 59,11 86,28 31,20 52,44 63,73 11,29 11,60 2,94l-46 -16c7,-27 7,-50 0,-69 -7,-18 -21,-34 -42,-47 -23,-15 -47,-22 -70,-21 -23,1 -44,9 -62,24 -19,15 -34,33 -47,53 -17,26 -28,52 -32,76 -5,24 -3,46 7,66 10,20 24,36 43,48 23,14 46,20 70,17 24,-3 47,-16 70,-38zm93 -11c27,-54 62,-89 106,-105 45,-17 90,-14 136,9 30,15 54,35 71,62 17,26 26,55 26,87 0,32 -8,65 -24,97 -16,33 -38,60 -64,79 -26,20 -55,30 -86,32 -31,1 -61,-5 -89,-19 -31,-15 -55,-36 -72,-63 -17,-27 -25,-56 -25,-88 0,-32 7,-62 21,-91zm44 23c-19,40 -24,76 -13,109 10,33 31,57 63,73 32,16 65,18 97,5 32,-12 59,-40 79,-82 13,-26 20,-52 21,-76 1,-24 -5,-46 -17,-65 -12,-20 -29,-35 -50,-45 -31,-15 -62,-18 -95,-8 -32,10 -60,40 -85,89zm250 304l126 -342 46 17 -111 302 168 62 -15 40 -214 -79zm297 -79c15,-59 42,-101 82,-126 39,-26 84,-32 134,-20 33,8 60,23 83,45 22,22 37,49 43,80 7,31 6,65 -2,100 -9,36 -24,66 -46,91 -21,25 -47,41 -77,49 -30,8 -61,8 -92,1 -33,-9 -61,-24 -83,-47 -22,-22 -37,-49 -43,-80 -7,-31 -7,-62 1,-93zm48 12c-10,43 -7,79 10,109 17,31 42,50 77,58 35,9 67,4 96,-15 29,-19 49,-51 60,-97 7,-29 9,-55 4,-79 -4,-24 -14,-44 -30,-60 -16,-17 -35,-28 -59,-33 -33,-9 -64,-4 -94,13 -29,16 -50,51 -64,104zm309 253l47 -361 50 6 152 309 37 -284 46 6 -47 361 -49 -6 -153 -308 -37 283 -46 -6zm374 43l32 -363 48 4 -32 363 -48 -4zm93 13l129 -368 53 -2 159 360 -55 1 -45 -109 -154 5 -36 111 -51 2zm100 -153l124 -3 -41 -100c-12,-31 -21,-56 -28,-76 -4,24 -10,48 -18,71l-37 108zm475 120l-40 -319 -120 15 -5 -43 286 -36 6 42 -120 15 41 320 -48 6zm151 -198c-14,-58 -9,-108 14,-149 24,-41 61,-67 111,-79 33,-8 64,-7 94,2 30,9 55,26 76,51 20,24 35,54 43,90 9,36 9,69 2,101 -8,32 -23,58 -46,79 -23,21 -50,36 -81,43 -34,8 -65,7 -95,-3 -31,-9 -56,-26 -76,-51 -20,-25 -34,-52 -42,-84zm49 -10c10,42 30,73 59,92 29,19 60,24 95,16 35,-9 61,-28 78,-58 17,-30 20,-68 9,-114 -7,-29 -18,-53 -33,-72 -15,-19 -33,-32 -55,-39 -21,-7 -44,-8 -67,-3 -33,8 -59,27 -78,55 -18,29 -21,69 -8,123zm490 50l-257 -294 49 -18 179 216c15,18 28,34 39,50 -2,-21 -3,-42 -2,-63l1 -283 47 -16 -9 391 -47 17zm148 -54l-12 -390 49 -21 278 279 -51 21 -81 -85 -142 59 6 117 -47 20zm39 -179l114 -48 -74 -78c-22,-24 -40,-44 -53,-60 4,24 7,48 8,72l5 114zm308 23l-179 -318 141 -79c28,-16 51,-25 69,-28 18,-3 35,1 52,10 17,10 30,23 40,41 13,22 16,45 11,69 -6,24 -23,46 -51,67 14,-1 25,0 34,2 19,4 38,12 58,23l104 55 -52 30 -80 -43c-23,-12 -41,-21 -55,-26 -13,-6 -24,-9 -33,-10 -8,0 -16,1 -24,3 -5,1 -13,5 -24,11l-49 28 80 141 -42 24zm-58 -202l90 -50c19,-11 33,-22 42,-32 8,-10 13,-21 14,-33 0,-11 -2,-22 -8,-33 -9,-15 -21,-24 -37,-28 -17,-3 -36,2 -60,15l-100 56 59 105z"
   id="path408" />
   <g
   id="g414">
    <path
   fill="none"
   stroke="black"
   stroke-width="20"
   d="M16357 10230c-51,25 -52,155 -30,171 6,4 -52,-19 -40,-105 0,0 -4,-31 -13,-6 -9,24 -22,86 -22,110 0,23 -19,-99 -19,-99 0,0 -29,27 -27,79 2,52 -22,-43 -22,-43 0,0 68,-64 99,-74 30,-10 30,-10 30,-10l44 -23z"
   id="path410" />
    <path
   id="path412"
   fill="black"
   d="M16357 10230c-51,25 -52,155 -30,171 6,4 -52,-19 -40,-105 0,0 -4,-31 -13,-6 -9,24 -22,86 -22,110 0,23 -19,-99 -19,-99 0,0 -29,27 -27,79 2,52 -22,-43 -22,-43 0,0 68,-64 99,-74 30,-10 30,-10 30,-10l44 -23z" />
   </g>
  </g>
  <g
   id="g422"
   style="fill:#ef3340;fill-opacity:1;stroke:none"
   transform="matrix(1.000001,0,0,0.99892384,-0.02406393,-1.1676276)">
   <polygon
   fill="none"
   stroke="#000000"
   stroke-width="20"
   points="29697,-1080 29697,17494 18849,17494 18849,-1080 "
   id="polygon418"
   style="fill:#ef3340;fill-opacity:1;stroke:none" />
   
  </g>
 </g>
</svg>
